<?xml version="1.0" standalone="no"?>
<!DOCTYPE svg PUBLIC "-//W3C//DTD SVG 1.0//EN" "http://www.w3.org/TR/2001/REC-SVG-20010904/DTD/svg10.dtd">
<svg xmlns="http://www.w3.org/2000/svg" xmlns:xlink="http://www.w3.org/1999/xlink" id="body_1" width="17" height="17">

<g transform="matrix(0.42500004 0 0 0.42500004 0 0)">
	<g transform="matrix(0.04 0 0 0.04 0 0)">
        <path d="M0 281.296L0 212.94098C 1.302 188.20299 11.067 167.37099 29.295 150.44498C 41.447002 139.16098 62.93 130.69797 93.743996 125.05598L93.743996 125.05598L187.488 125.05598L187.488 93.807976C 187.488 67.767975 196.602 45.633976 214.83 27.405975C 226.98201 15.253975 249.11601 6.1399755 281.232 0.06397629L281.232 0.06397629L593.71204 0.06397629C 619.7521 0.06397629 641.88605 9.177977 660.114 27.405975C 672.266 39.557976 681.38 61.691975 687.456 93.807976L687.456 93.807976L687.456 125.05598L781.2 125.05598C 805.93805 125.05598 827.421 133.51898 845.649 150.44498C 857.80096 161.72897 867.566 182.56097 874.944 212.94098L874.944 212.94098L874.944 281.296C 874.94403 298.222 868.7597 312.86966 856.391 325.23898C 848.1452 333.4852 833.49756 339.66956 812.448 343.792L812.448 343.792L812.448 875.008C 812.448 910.162 800.40466 939.7827 776.318 963.87C 760.26025 979.9282 730.6395 991.97156 687.456 1000L687.456 1000L187.488 1000C 152.33401 1000 122.71334 987.95667 98.62601 963.87C 82.56779 947.81226 70.52445 918.1915 62.496006 875.008L62.496006 875.008L62.496006 343.792C 45.570007 343.792 30.92234 337.60767 18.553005 325.23898C 10.306782 316.9932 4.122449 302.34552 5.722046E-06 281.296L5.722046E-06 281.296L0 281.296zM62.496 281.296L812.448 281.296L812.448 218.79999C 812.448 209.68599 809.5184 202.19933 803.659 196.34C 799.7528 192.43378 792.2661 189.50412 781.199 187.551L781.199 187.551L93.74298 187.551C 84.62898 187.551 77.14232 190.48067 71.28298 196.34C 67.376755 200.24623 64.44709 207.7329 62.49398 218.79999L62.49398 218.79999L62.49398 281.296zM124.992 875.00793C 124.992004 891.93396 131.17633 906.58167 143.545 918.9509C 151.79077 927.19714 166.43845 933.3815 187.488 937.5039L187.488 937.5039L687.456 937.5039C 704.38196 937.5039 719.02966 931.3196 731.399 918.9509C 739.6452 910.7052 745.8295 896.0575 749.95197 875.00793L749.95197 875.00793L749.95197 343.79193L124.99194 343.79193L124.99194 875.00793zM187.48799 843.75995L187.48799 437.53595C 187.48799 428.422 190.41766 420.9353 196.277 415.07596C 200.18323 411.16974 207.66989 408.24008 218.737 406.28696L218.737 406.28696L281.233 406.28696C 290.347 406.28696 297.83368 409.2166 303.693 415.07596C 307.5992 418.98218 310.52887 426.46887 312.482 437.53595L312.482 437.53595L312.482 843.75995C 312.482 852.874 309.55234 860.36066 303.693 866.22C 299.78677 870.1262 292.3001 873.0559 281.233 875.009L281.233 875.009L218.737 875.009C 209.623 875.00903 202.13634 872.07935 196.27701 866.22C 192.37079 862.3137 189.44113 854.827 187.488 843.75995zM218.736 843.75995L281.232 843.75995L281.232 437.53595L218.736 437.53595L218.736 843.75995zM249.984 125.05597L624.96 125.05597L624.96 93.80797C 624.96 84.69397 622.0304 77.207306 616.171 71.34797C 612.2648 67.44174 604.77814 64.51208 593.711 62.558968L593.711 62.558968L281.231 62.558968C 272.117 62.558968 264.63034 65.48863 258.771 71.34797C 254.86478 75.254196 251.9351 82.74086 249.982 93.80797L249.982 93.80797L249.982 125.05597zM374.97598 843.75995L374.97598 437.53595C 374.97598 428.422 377.90564 420.9353 383.76498 415.07596C 387.67123 411.16974 395.1579 408.24008 406.22498 406.28696L406.22498 406.28696L468.72098 406.28696C 477.835 406.28696 485.32166 409.2166 491.18097 415.07596C 495.0872 418.98218 498.01685 426.46887 499.96997 437.53595L499.96997 437.53595L499.96997 843.75995C 499.96997 852.874 497.0403 860.36066 491.18097 866.22C 487.27475 870.1262 479.7881 873.0559 468.72098 875.009L468.72098 875.009L406.22498 875.009C 397.111 875.00903 389.62433 872.07935 383.76498 866.22C 379.85876 862.3137 376.9291 854.827 374.97598 843.75995zM406.22397 843.75995L468.71997 843.75995L468.71997 437.53595L406.22397 437.53595L406.22397 843.75995zM562.464 843.75995L562.464 437.53595C 562.464 428.422 565.3937 420.9353 571.253 415.07596C 575.1592 411.16974 582.6459 408.24008 593.713 406.28696L593.713 406.28696L656.209 406.28696C 665.323 406.28696 672.8097 409.2166 678.669 415.07596C 682.57526 418.98218 685.5049 426.46887 687.458 437.53595L687.458 437.53595L687.458 843.75995C 687.458 852.874 684.5284 860.36066 678.669 866.22C 674.76276 870.1262 667.2761 873.0559 656.209 875.009L656.209 875.009L593.713 875.009C 584.599 875.00903 577.1123 872.07935 571.253 866.22C 567.3468 862.3137 564.4171 854.827 562.464 843.75995zM593.712 843.75995L656.20795 843.75995L656.20795 437.53595L593.712 437.53595L593.712 843.75995z" stroke="none" fill="#000000" fill-rule="nonzero" />
	</g>
</g>
</svg>